<svg version="1.2" xmlns="http://www.w3.org/2000/svg" viewBox="0 0 1187 1587" width="1187" height="1587">
	<style>
		.s0 { fill: #ea5f00 } 
		.s1 { fill: #2672dd } 
	</style>
	<g id="Group 1">
		<g id="Group 2">
			<path id="Object 3" fill-rule="evenodd" class="s0" d="m335.63 200.32c15.25-11.03 48.73-31.37 66.78-39.39 51.62-22.94 113.13-42.5 171.78-42.5 87.12 0 139.19 7.49 214.95 43.74 7.58 3.62 12.43 6.59 18.72 10.23 5.97 3.45 11.68 6.19 17.4 9.62 54.51 32.66 104.02 79.91 139.27 132.93 14.54 21.88 27.8 43.84 38.79 69.32 23.81 55.21 43.36 136.75 36.39 199.69-0.75 6.83 0.17 13.81-0.56 20.67-1.14 10.75-3.24 26.75-5.32 37.15-4.73 23.74-9.28 44.75-16.82 66.19-26.29 74.77-74.78 149.41-136.13 197.84-15.71 12.4-30.36 24.71-47.9 35.11-60.99 36.16-44.88 33.49-108.63 15.75-36.96-10.28-110.63-41.69-146.57-56.13-33.07-13.28-66.02-23.68-102.41-32.72-60.22-14.97-94.49-15.82-156-15.82-27.54 0-42.79 4.22-61.77 5.8-10.48-15.66-26.5-30.64-41.87-56.59-48.77-82.34-68.17-145.87-68.17-250.36 0-137.17 77.59-270.6 188.07-350.53zm406.51 174.86c-5.17-1.38-10.93-6.65-15.44-9.65-4.68-3.12-8.83-6.04-13.89-9.28-108.91-69.94-248.65-21.93-248.65 88.43 0 60.58 28.58 94.19 79.14 119.7 13.48 6.8 29.44 13.25 45.11 18.59 42.67 14.52 90.75 30.17 79.97 75.56-2.63 11.11-4.09 11.93-11.59 19.32-19.57 19.25-40.53 17.79-65.22 17.79-31.48 0-71.77-20.53-95.73-39.41-4.7-3.7-5.9-5.81-10.45-8.85-4.47 2.99-42.94 56.31-44.4 61.77 7.75 11.58 47.97 38.54 63.14 44.97 51.22 21.71 56.99 22.6 112.53 22.6 51.22 0 104.74-31.27 123.55-73.37 17.46-39.1 16.18-83.29-6.59-120.81-15.18-25.03-42.85-43.89-68.69-56.78-11.06-5.52-22.8-10.76-34.73-15.47-24.8-9.78-46.53-15.16-68.77-31.62-31.97-23.67-14.41-74.53 37.86-74.53 41.09 0 69.15 13.83 100.38 34.75 6.49-12.27 40.73-57.19 42.47-63.71z"/>
			<path id="Object 4" class="s0" d="m27.88 545.06c0 60.44-1.21 75.88 11.08 137.56 7.7 38.6 12.43 47.67 23.43 80.82 9.36 28.23 55.4 122.71 73.59 134.89 5.39-1.25 12.08-4.68 17.91-7.18l37.33-14.8c7.14-2.49 14.19-4.16 20.05-6.97l-38.72-57.8c-36.24-60.09-65.53-151.07-65.53-227.91 0-87.57 11.34-154.17 46.33-223.93 13.66-27.23 26.55-51.79 44.1-75.59 4.24-5.75 7.86-10.78 12.49-16.47l73.25-75.39 34.25-25.6c68.61-45.44 130.96-71.79 216.76-82.46 18.07-2.24 39.14-2.12 56.03-3.94 17.32-1.86 87.5 7.35 105.2 11.5 81.22 19.07 138.29 46.75 202.24 96.97 5.78 4.54 10.92 8.22 15.83 13.14 6.25 6.26 10.45 8.72 16.42 14.47l41.94 46.85c60.83 77.85 106.18 178.77 106.18 283.77 0 102.65-7.74 138.8-44.96 225.31-8.22 19.13-16.92 33.01-27.07 50.14-9.13 15.42-19.83 30.82-30.88 44.41-21.35 26.22-40.44 46.79-66.39 68.74l-32.24 25.67c-4.94 3.41-6.33 4.87-11.18 8.13l-6.95 4.64c-0.32 0.23-0.79 0.59-1.1 0.83-3.56 2.73-1.29 1-3.16 2.62 64.95 0 88.09-3.71 146.05-31.55 14.78-7.1 15.9-5.65 26.05-18.35l19.62-24.78c69.41-84.51 115.22-212.43 115.22-338.43 0-115.17-35.11-221.01-97.68-315.44-5.03-7.6-9.35-13.59-14.28-20.47-4.57-6.37-10.55-13.03-15.44-19.31l-48.84-53.47c-56.33-47.09-65.7-59.75-144.22-99.02-60.65-30.34-149.75-55.98-222-55.98h-3.11-6.09c-60.96 0.01-93.71 0.49-157.23 16.96-119.32 30.93-210.42 92.59-291.53 183.35-5.25 5.87-9.47 12.08-14.55 18.27-45.55 55.42-82.85 134.75-101.25 205.7-8.53 32.94-16.95 78.42-16.95 120.1z"/>
			<path id="Object 5" class="s1" d="m25.95 1035.4c0 40.56 39.53 60.13 72.54 33.94 4.79-3.8 6.86-5.71 11.83-9.42 5-3.74 8.56-5.89 13.54-9.62 8.94-6.7 16.76-10.94 25.63-16.84 41.11-27.35 112.87-55.98 164.09-55.98 71.92 0 100.76 0.45 171.08 23.9 39.06 13.02 72.12 28.9 108.56 43.94 110.55 45.63 152.66 61.5 278.26 61.5 95.41 0 186.63-42.14 260.3-91.04 28.42-18.87 25.39-76.91-28.65-76.91-14.07 0-35 16.89-52.01 27.14-63.68 38.4-123.44 55.87-204.73 55.87-161.49 0-262.25-97.75-424.13-124.12-88.17-14.36-168.41-5.28-237.48 22.34-31.93 12.77-63.19 28.92-90.11 46.96l-40.06 27.51c-11.82 9.25-28.66 20.75-28.66 40.83z"/>
			<path id="Object 6" class="s1" d="m153.35 1101.03c0 32.48 15.86 44.4 46.34 44.4 12.79 0 21.26-8.48 30.08-14.32 111.62-73.77 235.45-0.12 336.14 39.97 77.23 30.75 161.71 59.29 249.59 59.29h31.23c35.79-0.18 56.72-1.79 102.36-13.12 25.88-6.43 59.45-13.17 59.45-48.65 0-22.79-19.68-42.47-42.47-42.47-11.65 0-26.81 7.15-38.19 10.07-79.4 20.39-199.13 8.17-273.2-21.07l-87.38-34.23c-126.67-53.04-214.14-93.43-344.73-39.99-15.63 6.4-27.58 13.66-41.03 22.67-12.94 8.66-28.19 16.67-28.19 37.45z"/>
		</g>
		<g id="Group 8">
			<path id="Object 9" fill-rule="evenodd" class="s0" d="m527.97 1374.83h67.76c22.56 0 37.13 3.02 49.67 13.63 10.73 9.09 20.76 23.12 20.76 42.54 0 33.21-13.39 36.12-15.16 43.69 3.78 0.87 7.98 4.75 10.51 7.33 8.92 9.1 15.35 22.7 15.35 37.24 0 21.79-1.41 33.87-18.49 51.06-7.35 7.41-25.07 15.81-39.46 15.81h-93.62v-208.63c0-2.05 0.62-2.67 2.68-2.67zm102.53 64.19v-7.13c0-22.92-43.32-20.51-61.52-20.51-5.74 0-8.03-0.79-8.03 2.68v42.79c0 4.66 9.44 2.68 22.29 2.68 20.18 0 47.26-1.09 47.26-20.51zm7.68 69.88c-5.5-9.62-18.51-14.6-29.97-14.6h-47.26v53.5h44.58c33.79 0 41.17-24 32.65-38.9z"/>
			<path id="Object 10" fill-rule="evenodd" class="s0" d="m380.85 1429.2c16.63-8.31 23.95-8.01 41.91-8.01 17.13 0 27.75 8.07 38.34 15.16v-10.7h37.44v159.59h-37.44v-15.16c-5.31 2.81-7.26 7.3-19.49 11.73-29.3 10.6-57.79 2.29-79.71-19.51-16.33-16.24-22.06-38.04-22.06-61.76 0-28.38 15.17-58.42 41.01-71.34zm9.58 106.35c4.62 4.61 6.07 5.93 12.4 9 4.41 2.13 11.71 3.89 17.25 3.88 37.64-0.07 53.94-44.69 29.44-76.43-14.75-19.1-53.79-20.3-67.17 13.99-1.5 3.85-3.28 13.2-3.28 18.12 0 11.08 3.66 23.77 11.36 31.44z"/>
			<path id="Object 11" fill-rule="evenodd" class="s0" d="m693.68 1469.21c6.05-16.86 18.87-32 34.88-40.01 16.63-8.31 23.96-8.01 41.92-8.01 17.13 0 27.75 8.07 38.33 15.16v-9.81h37.45v158.7h-37.45v-15.16c-4.34 2.3-4.96 4.22-9.27 6.78-19.53 11.66-47.31 12.29-68.01 1.86-9.12-4.6-15.08-9.62-21.92-16.42-16.32-16.24-22.05-38.04-22.05-61.76 0-11.8 3.05-22.78 6.12-31.33zm44.46 66.34c33 32.91 85.25-0.81 66.99-50.05-0.97-2.62-2.03-5.01-3.37-7.33-20.42-35.39-74.97-20.5-74.97 25.94 0 11.08 3.66 23.77 11.35 31.44z"/>
			<path id="Object 12" fill-rule="evenodd" class="s0" d="m169.4 1469.19c3.28-8.17 9.43-18.33 15.07-24.17 24.07-24.96 65.98-31.19 97.44-15.83 4.06 1.99 8.06 4.63 11.59 7.14 8.26 5.9 19.97 20.46 24.19 31.08 8.81 22.13 7 29.31 7 52.75h-119.48c0.75 9.01 8.69 17.45 14.62 21.94 19.18 14.51 59.6 9.32 78.3-6.6 2.37-2.02 1.58-2.03 5.16-2.86 1.39 5.21 16.81 22.94 17.83 26.75-5.07 3.39-9.23 6.74-14.62 10.34-18.65 12.47-38.62 16.4-62.95 16.4-44.49 0-80.24-36.9-80.24-82.91 0-12.45 2.59-25.31 6.09-34.03zm112.12 6.75c-2.55-3.86-5.13-6.66-8.54-9.29-9.19-7.1-13.11-9.02-26.49-10.07-20.24-1.58-42.17 12.83-42.17 31.48h78.46c5.21 0 0.27-9.8-1.26-12.12z"/>
			<path id="Object 13" class="s0" d="m107.14 1522.83c0 10.99-3.31 16.61-14.61 21.05-8.65 3.4-18.71 3.29-28.29 1.34-12.68-2.57-28.31-9.7-37.95-18.22-2.68-2.37-1.67-2.95-5.63-3.28-0.86 3.22-18.44 26.34-20.51 29.42 4.54 6.78 22.85 18.74 30.9 22.6 27.79 13.34 65.22 15.35 91.63-2.59 7.99-5.42 14.07-13.3 18.34-21.78 15.12-30.04 2.63-66.09-30.6-82.64-5.52-2.75-9.89-5.25-15.62-7.56-10.8-4.34-42.94-13.03-42.94-27.5 0-8.31 0.2-13.98 11.58-18.73 11.43-4.78 31.12-1.47 42.53 3.86 5.91 2.76 10.9 6.65 16.33 9.52 2.29-1.68 18.7-25.39 21.39-29.42-4.11-2.75-7.27-5.67-11.96-8.54-24.4-14.92-31.03-16.42-60.25-16.42-16.86 0-40.26 11.41-49.78 26.01-12.04 18.47-13.31 48.23 0.11 64.66 1.67 2.04 2.71 3.57 4.41 5.41 26.7 28.91 80.92 26.04 80.92 52.81z"/>
			<path id="Object 14" class="s0" d="m1042.41 1586.13h37.45v-45.47c0-4.36 10.68-15.33 13.37-16.05 1.3 4.88 45.07 56.7 46.36 61.52h47.25c-0.76-2.84-6.11-8.92-8.14-11.46l-52.48-67.89c-2.87-3.83-6.32-7.71-8.92-11.59 4.03-2.7 4.88-5.33 8.23-8.71 1.63-1.64 2.96-2.73 4.47-4.45 1.8-2.04 1.99-2.82 4-4.91l25.34-27.27c3.4-4.26 23.83-24.91 24.83-28.66-13.66 0-27.38 0.13-41.03-0.01-6.95-0.08-7.94-1.06-13.87 6.63l-49.41 53.12v-108.78h-37.45z"/>
			<path id="Object 15" class="s0" d="m912.24 1433.67v-7.13h-38.34v159.59h38.34v-80.24c0-27.13 5.87-53.55 38.29-49.03 28.16 3.93 26.79 38.57 26.79 63.3v65.97h37.45c0-27.3 2.15-97.46-3.2-120.73-2.31-10.05-5.91-16.07-11.05-22.83-17.65-23.22-53.83-26.66-79.08-13.96-3.23 1.62-6.47 4.33-9.2 5.06z"/>
		</g>
	</g>
</svg>